<?xml version="1.0" standalone="no"?>
<!DOCTYPE svg PUBLIC "-//W3C//DTD SVG 20010904//EN"
 "http://www.w3.org/TR/2001/REC-SVG-20010904/DTD/svg10.dtd">
<svg version="1.0" xmlns="http://www.w3.org/2000/svg"
 width="1920.000000pt" height="1920.000000pt" viewBox="0 0 1920.000000 1920.000000"
 preserveAspectRatio="xMidYMid meet">
<metadata>
Created by potrace 1.16, written by Peter Selinger 2001-2019
</metadata>
<g transform="translate(0.000000,1920.000000) scale(0.100000,-0.100000)"
fill="#003366" stroke="none">
<path d="M5853 10800 l-23 -9 0 -529 c0 -445 2 -531 14 -541 11 -9 118 -11
413 -9 l398 3 56 26 c68 32 124 87 153 148 16 36 21 66 21 136 0 79 -4 97 -29
148 -25 53 -79 106 -119 120 -7 2 1 18 21 41 46 53 62 98 62 180 0 124 -56
207 -175 263 l-60 28 -355 2 c-196 1 -365 -2 -377 -7z m718 -203 c58 -39 73
-94 45 -162 -28 -67 -57 -75 -264 -75 -107 0 -191 -4 -203 -10 -16 -9 -19 -22
-19 -80 0 -58 3 -71 19 -80 12 -6 104 -10 228 -10 189 0 211 -2 240 -20 98
-59 93 -199 -9 -249 -42 -20 -59 -21 -304 -21 -189 0 -263 3 -272 12 -9 9 -12
102 -12 358 0 191 3 350 7 353 3 4 120 7 258 7 246 0 253 -1 286 -23z"/>
<path d="M7553 10800 c-17 -7 -89 -142 -288 -540 -146 -292 -263 -535 -260
-541 4 -5 53 -9 111 -9 l104 0 44 93 c24 50 115 236 201 412 l157 320 109
-219 c60 -120 107 -222 104 -226 -2 -4 -66 -8 -142 -9 -160 -3 -182 -11 -232
-90 -55 -85 -65 -81 217 -81 l249 0 47 -100 47 -100 104 0 c57 0 106 4 109 9
3 5 -75 172 -173 372 -98 200 -215 439 -259 531 -65 136 -86 170 -107 178 -32
12 -112 12 -142 0z"/>
<path d="M8402 10800 l-22 -9 2 -538 3 -538 70 -3 c38 -2 80 0 92 3 l23 5 0
434 c0 382 2 436 16 450 13 13 46 16 201 16 209 0 247 -7 294 -56 29 -30 34
-42 37 -97 5 -78 -13 -124 -64 -163 -37 -28 -40 -29 -195 -34 -87 -3 -161 -8
-165 -13 -13 -13 -16 -120 -5 -149 10 -27 13 -28 90 -28 90 0 78 8 184 -125
148 -186 268 -254 481 -271 96 -8 276 10 322 32 17 8 36 26 43 40 8 18 11 173
11 529 0 579 11 525 -104 525 -45 0 -69 -5 -80 -16 -14 -14 -16 -69 -16 -463
0 -356 -3 -451 -13 -459 -39 -33 -189 -21 -282 22 -27 13 -68 38 -90 55 -39
32 -134 139 -135 153 0 3 20 16 44 28 62 30 129 105 156 176 32 83 31 206 0
289 -31 79 -105 154 -185 186 -58 22 -71 23 -375 26 -184 1 -324 -1 -338 -7z"/>
<path d="M10297 10788 c-45 -42 -423 -473 -436 -497 -25 -45 -6 -81 101 -196
56 -61 157 -172 226 -247 l124 -138 119 0 c65 0 120 4 123 9 3 5 -99 120 -227
256 -127 136 -238 255 -245 264 -10 15 15 47 205 255 254 278 266 293 258 306
-4 6 -53 10 -115 10 -99 0 -111 -2 -133 -22z"/>
<path d="M10748 10799 c-17 -9 -18 -45 -18 -525 l0 -515 25 -24 24 -25 369 0
c273 0 371 3 380 12 7 7 12 40 12 78 0 38 -5 71 -12 78 -9 9 -89 12 -298 12
-209 0 -289 3 -298 12 -9 9 -12 123 -12 450 0 422 -1 438 -19 448 -25 13 -131
13 -153 -1z"/>
<path d="M11712 10794 l-22 -15 0 -523 c0 -430 2 -526 14 -535 9 -8 126 -10
412 -9 l399 3 0 85 0 85 -310 5 -310 5 -3 137 -3 137 277 1 c152 0 281 3 285
6 14 8 11 158 -3 172 -9 9 -86 12 -285 12 l-274 0 3 128 3 127 305 5 305 5 3
80 c2 66 0 82 -14 92 -14 10 -105 13 -389 13 -319 0 -374 -2 -393 -16z"/>
<path d="M12645 10800 c-8 -12 2 -29 90 -150 34 -47 126 -179 206 -295 l144
-210 5 -215 5 -215 78 -3 c50 -2 84 1 93 9 11 9 14 53 14 218 l0 207 173 245
c95 134 199 279 230 323 31 43 54 82 51 87 -3 5 -52 9 -110 9 -87 0 -107 -3
-119 -17 -8 -10 -82 -115 -164 -233 -81 -118 -152 -215 -157 -215 -4 0 -75 99
-156 220 -82 121 -156 226 -165 233 -21 15 -209 17 -218 2z"/>
<path d="M8270 9190 l0 -190 25 0 25 0 0 190 0 190 -25 0 -25 0 0 -190z"/>
<path d="M9352 9368 c-26 -26 1 -65 38 -53 16 5 20 14 18 33 -3 30 -35 41 -56
20z"/>
<path d="M10990 9191 l0 -191 24 0 c23 0 25 4 31 83 3 45 5 129 3 187 l-3 105
-27 3 -28 3 0 -190z"/>
<path d="M11201 9361 c-13 -24 8 -55 34 -50 28 6 42 34 26 53 -18 22 -48 20
-60 -3z"/>
<path d="M7503 9254 c-75 -38 -97 -151 -42 -210 54 -58 140 -70 197 -27 34 25
36 36 12 51 -18 11 -25 10 -47 -8 -50 -39 -112 -18 -133 44 -28 84 60 147 141
99 26 -16 31 -16 44 -2 14 14 13 18 -10 39 -33 31 -116 38 -162 14z"/>
<path d="M7914 9260 c-31 -12 -72 -66 -80 -105 -8 -46 11 -99 47 -130 90 -75
221 -23 235 92 13 101 -103 183 -202 143z m121 -65 c17 -17 25 -35 25 -60 0
-48 -13 -70 -49 -85 -62 -25 -121 13 -121 80 0 54 34 90 85 90 25 0 44 -8 60
-25z"/>
<path d="M8535 9239 c-115 -101 -25 -275 128 -245 17 4 43 15 57 26 23 18 24
20 9 35 -15 15 -19 15 -47 1 -45 -23 -89 -20 -117 9 -14 13 -25 29 -25 35 0 6
40 10 110 10 l110 0 0 26 c0 40 -30 94 -64 115 -19 11 -50 19 -78 19 -39 0
-54 -6 -83 -31z m145 -39 c34 -34 24 -40 -60 -40 -44 0 -80 3 -80 7 0 4 10 17
22 30 28 30 89 32 118 3z"/>
<path d="M8965 9250 c-91 -60 -83 -192 15 -243 41 -21 102 -17 131 9 18 17 19
16 19 -13 0 -50 -30 -78 -83 -78 -30 0 -52 6 -65 18 -19 17 -23 17 -42 4 -21
-14 -21 -15 10 -40 39 -33 91 -43 142 -28 82 25 100 72 96 258 -3 125 -3 128
-26 131 -17 3 -25 -2 -29 -17 -5 -21 -5 -21 -30 -1 -34 26 -98 26 -138 0z
m139 -51 c21 -16 26 -29 26 -63 0 -50 -27 -82 -78 -92 -26 -5 -36 -1 -62 24
-82 83 22 203 114 131z"/>
<path d="M9350 9135 l0 -135 25 0 25 0 0 135 0 135 -25 0 -25 0 0 -135z"/>
<path d="M9613 9250 c-89 -54 -83 -199 10 -243 99 -47 207 16 207 122 0 84
-56 141 -140 141 -27 0 -58 -8 -77 -20z m141 -61 c35 -41 34 -83 -3 -120 -58
-57 -146 -22 -146 59 0 87 95 126 149 61z"/>
<path d="M10243 9254 c-44 -22 -73 -71 -73 -124 0 -53 23 -92 70 -119 98 -55
210 9 210 120 0 109 -107 172 -207 123z m112 -40 c21 -8 45 -56 45 -89 0 -16
-12 -38 -29 -56 -37 -36 -79 -38 -118 -5 -22 19 -28 32 -28 66 0 34 6 47 28
66 27 23 68 30 102 18z"/>
<path d="M10597 9263 c-4 -3 -7 -64 -7 -135 l0 -128 30 0 30 0 0 88 c0 105 13
132 65 132 55 0 65 -18 65 -126 l0 -94 30 0 30 0 0 89 c0 101 -12 143 -45 165
-31 20 -94 21 -122 1 -19 -13 -22 -13 -27 0 -5 15 -37 20 -49 8z"/>
<path d="M11207 9263 c-4 -3 -7 -64 -7 -135 l0 -128 30 0 30 0 0 135 c0 135 0
135 -23 135 -13 0 -27 -3 -30 -7z"/>
<path d="M11417 9263 c-4 -3 -7 -64 -7 -135 l0 -128 30 0 30 0 0 90 c0 104 15
130 73 130 51 0 57 -13 57 -122 l0 -98 30 0 30 0 0 89 c0 101 -12 143 -45 165
-31 20 -94 21 -122 1 -19 -13 -22 -13 -27 0 -5 15 -37 20 -49 8z"/>
<path d="M11866 9251 c-41 -28 -66 -70 -66 -116 0 -108 102 -174 203 -132 46
20 62 41 41 57 -13 11 -20 11 -44 -3 -38 -23 -82 -21 -114 4 -51 40 -36 49 79
49 l105 0 0 31 c0 44 -25 92 -59 112 -39 23 -109 22 -145 -2z m134 -51 c34
-34 24 -40 -60 -40 -47 0 -80 4 -80 10 0 24 41 50 80 50 27 0 47 -7 60 -20z"/>
</g>
</svg>
