<svg xmlns="http://www.w3.org/2000/svg" fill="none" viewBox="0 0 264 200" height="200" width="264">
<g clip-path="url(#clip0_142_52)">
<g clip-path="url(#clip1_142_52)">
<path fill="#FAFAF9" d="M202.481 91.1197C200.235 92.7334 197.5 93.6906 194.592 93.6906C187.272 93.6906 181.119 87.6089 181.119 80.433C181.119 72.6112 187.165 66.8344 194.592 66.8344C197.523 66.8344 200.237 67.7785 202.458 69.3686C203.141 68.6384 203.883 67.9716 204.681 67.3801C201.831 65.2526 198.305 64 194.592 64V64.018C186.214 64.018 177.979 70.5482 177.979 80.451C177.979 89.2774 185.801 96.5431 194.592 96.5431C198.311 96.5431 201.856 95.2769 204.716 93.1271C203.912 92.5236 203.165 91.8511 202.481 91.1197Z"></path>
<path fill="#FAFAF9" d="M204.643 71.3238C206.784 73.7032 208.101 76.8401 208.101 80.3073C208.101 83.7195 206.793 86.7945 204.691 89.1394C205.359 89.8824 206.107 90.5526 206.923 91.1375C209.569 88.2938 211.241 84.5253 211.241 80.2714C211.241 75.9784 209.546 72.1804 206.861 69.3281C206.048 69.9066 205.305 70.5752 204.643 71.3238Z"></path>
<path fill="#FAFAF9" d="M204.642 71.3234C203.986 70.5954 203.256 69.9397 202.458 69.3682C199.828 72.1771 198.126 75.9618 198.126 80.4506C198.126 84.533 199.812 88.2695 202.48 91.1195C203.286 90.5405 204.028 89.878 204.69 89.1392C202.575 86.7879 201.265 83.7303 201.265 80.4328C201.265 76.8415 202.546 73.691 204.642 71.3234Z"></path>
<path fill="#FAFAF9" d="M214.739 64V64.018C211.145 64.018 207.583 65.2265 204.681 67.3801C205.464 67.9645 206.191 68.6173 206.86 69.3282C209.076 67.7503 211.792 66.8346 214.738 66.8346C222.183 66.8346 228.247 72.8267 228.247 80.3076C228.247 87.7884 222.004 93.6908 214.738 93.6908C211.845 93.6908 209.142 92.7301 206.921 91.1377C206.246 91.8642 205.51 92.5306 204.716 93.1271C207.554 95.2569 211.057 96.5431 214.738 96.5431C223.529 96.5431 231.386 89.5287 231.386 80.2716C231.386 71.0146 223.583 64 214.739 64Z"></path>
<path fill="#FAFAF9" d="M202.458 69.3674C203.256 69.9389 203.987 70.5946 204.642 71.3226C205.304 70.5741 206.047 69.9059 206.86 69.327C206.191 68.6159 205.464 67.9633 204.681 67.3789C203.884 67.9704 203.142 68.6374 202.458 69.3674Z"></path>
<path fill="#FAFAF9" d="M206.923 91.1378C206.107 90.5528 205.36 89.8827 204.691 89.1396C204.029 89.8782 203.288 90.5407 202.481 91.1199C203.166 91.8513 203.913 92.5235 204.717 93.127C205.511 92.5306 206.247 91.8642 206.923 91.1378Z"></path>
<path fill="#FAFAF9" d="M0.206055 64.5861H3.34994V82.5743L17.6404 64.5861H21.6596L9.3874 79.859L21.7844 95.936H17.8368L7.38676 82.3599L3.34958 87.3081V95.9004H0.206055V64.5861Z"></path>
<path fill="#FAFAF9" d="M25.8223 64.5859H28.9661V95.9002H25.8223V64.5859Z"></path>
<path fill="#FAFAF9" d="M36.29 64.5859H40.5236L57.9937 90.577H58.083V64.5859H61.2092V95.9002H58.083L39.5054 68.3553V95.9004H36.29V64.5859Z"></path>
<path fill="#FAFAF9" d="M100.276 81.5213C99.4859 90.0414 92.2908 96.5296 83.7347 96.437C74.6631 96.5185 67.196 89.3216 66.9434 80.2528C67.1097 71.1575 74.6036 63.9115 83.699 64.0508C89.9349 63.959 95.6798 67.4239 98.5076 72.9824H94.9347C92.5282 69.1685 88.3154 66.8761 83.806 66.9269C76.4068 66.9615 70.4365 72.9877 70.4712 80.3869C70.5058 87.7862 76.532 93.7564 83.9312 93.7218C89.6952 93.6474 94.75 89.8559 96.4355 84.3435H79.0367V81.5213H100.276Z"></path>
<path fill="#FAFAF9" d="M132.824 75.5007L127.036 86.5401L134.95 94.2391L132.699 96.4006L125.553 89.416C124.446 91.4881 121.874 96.4006 116.032 96.4006C110.672 96.4803 106.26 92.2037 106.172 86.8437C106.172 81.9493 109.745 79.1804 113.317 77.5369C111.258 75.9502 109.962 73.5712 109.744 70.981C109.918 66.9955 113.279 63.8989 117.265 64.0502C121.33 64.0492 124.653 67.2926 124.75 71.3564C124.75 75.8045 120.266 77.9123 118.676 78.5017L124.589 84.343L129.162 75.5365L132.824 75.5007ZM115.657 79.788C114.552 80.1723 113.496 80.6881 112.514 81.3243C109.426 83.099 108.361 87.0406 110.135 90.1284C111.286 92.1306 113.42 93.3648 115.729 93.3641C119.963 93.3641 121.945 89.4341 123.125 87.112L115.657 79.788ZM117.444 66.9978C115.165 66.9252 113.238 68.6706 113.085 70.9454C113.085 73.0533 114.871 74.7504 116.658 76.3045C118.176 75.7151 122.017 74.5183 121.856 71.1062C121.792 68.7887 119.861 66.962 117.544 67.0264C117.492 67.0276 117.442 67.0301 117.39 67.0335L117.444 66.9978Z"></path>
<path fill="#FAFAF9" d="M137.074 64.5859H140.29L147.953 91.8809L155.402 64.5859H158.331L165.816 91.8275H165.905L173.551 64.5859H176.82L167.888 95.9002H163.851L156.956 70.2128L150.025 95.9002H146.006L137.074 64.5859Z"></path>
<path fill="#FAFAF9" d="M236.877 64.5868H246.005C249.578 64.5003 253.106 65.3963 256.205 67.177C263.422 71.8416 265.491 81.4732 260.826 88.6898C259.63 90.54 258.055 92.1151 256.205 93.3108C253.109 95.0992 249.579 95.9959 246.005 95.9011H236.877V64.5868ZM240.003 93.0609H244.523C248.272 93.3544 252.02 92.4676 255.241 90.5245C258.359 88.0057 260.166 84.2079 260.153 80.1995C260.114 76.0907 258.125 72.245 254.794 69.839C252.007 68.0528 249.095 67.4273 244.469 67.4273H239.95L240.003 93.0609Z"></path>
<path fill="#FAFAF9" d="M-0.0263672 104.172H4.83229L16.1933 130.806L27.6259 104.172H32.449V135.468H29.3228V107.584H29.2335L17.5154 135.468H14.8539L3.22453 107.584V135.468H-0.0263672V104.172Z"></path>
<path fill="#FAFAF9" d="M52.3663 104.172H55.9392L69.3901 135.468H65.9068L61.3874 124.929H46.8289L42.2738 135.468H39.0049L52.3663 104.172ZM48.0256 122.035H60.1547L54.1526 107.638L48.0256 122.035Z"></path>
<path fill="#FAFAF9" d="M76.0012 104.172H79.1274V132.628H92.0782V135.468H76.0013L76.0012 104.172Z"></path>
<path fill="#FAFAF9" d="M98.4551 104.172H101.599V132.628H114.532V135.468H98.4551V104.172Z"></path>
<path fill="#FAFAF9" d="M120.676 104.172H137.807V106.994H123.802V118.248H137.342V121.088H123.802V132.628H137.807V135.468H120.676V104.172Z"></path>
<path fill="#FAFAF9" d="M146.454 126.716C146.558 130.256 149.513 133.041 153.053 132.937C156.35 132.839 159.036 130.257 159.262 126.966C159.262 122.143 154.403 120.91 152.277 120.285C149.455 119.445 144.167 118.249 144.167 112.032C144.192 107.208 148.123 103.317 152.947 103.342C157.772 103.367 161.662 107.297 161.638 112.122H158.583C158.593 109.032 156.117 106.508 153.028 106.459C150.021 106.34 147.487 108.681 147.368 111.688C147.367 111.731 147.365 111.775 147.365 111.818C147.365 115.623 150.705 116.516 154.813 117.695C162.53 119.856 162.53 125.983 162.53 126.841C162.271 132.113 157.786 136.176 152.514 135.915C147.559 135.671 143.614 131.674 143.435 126.716H146.454Z"></path>
<path fill="#FAFAF9" d="M184.858 103.618C193.804 103.805 200.905 111.21 200.717 120.156C200.529 129.102 193.124 136.202 184.178 136.014C175.428 135.83 168.406 128.732 168.317 119.98C168.357 110.904 175.746 103.578 184.823 103.617L184.858 103.618ZM184.858 133.181C192.238 133.161 198.204 127.162 198.183 119.783C198.163 112.403 192.164 106.437 184.785 106.458C177.405 106.478 171.44 112.477 171.46 119.856C171.46 119.898 171.461 119.939 171.461 119.98C171.635 127.266 177.571 133.091 184.858 133.128L184.858 133.181Z"></path>
<path fill="#FAFAF9" d="M209.492 104.172H213.725L231.195 130.145V104.172H234.321V135.468H231.195L212.707 107.923V135.468H209.581L209.492 104.172Z"></path>
<path fill="#FAFAF9" d="M245.237 126.716C245.341 130.256 248.296 133.041 251.836 132.937C255.133 132.839 257.819 130.257 258.045 126.966C258.045 122.143 253.186 120.91 251.078 120.285C248.273 119.445 242.914 118.249 242.914 112.032C242.939 107.208 246.87 103.317 251.694 103.342C256.518 103.367 260.409 107.297 260.384 112.122H257.205C257.225 109.035 254.754 106.508 251.667 106.459C248.661 106.34 246.127 108.681 246.008 111.688C246.006 111.731 246.005 111.775 246.004 111.818C246.004 115.623 249.345 116.516 253.453 117.695C261.152 119.767 261.099 125.823 261.099 126.752C261.06 131.862 256.886 135.973 251.776 135.935C251.739 135.935 251.703 135.934 251.667 135.933C246.612 136.191 242.306 132.301 242.049 127.247C242.038 127.041 242.035 126.834 242.038 126.627L245.237 126.716Z"></path>
</g>
</g>
<defs>
<clipPath id="clip0_142_52">
<rect fill="white" height="200" width="263.345"></rect>
</clipPath>
<clipPath id="clip1_142_52">
<rect transform="translate(0 64)" fill="white" height="72" width="263.345"></rect>
</clipPath>
</defs>
</svg>
