<svg width="285" height="54" viewBox="0 0 285 54" fill="none" xmlns="http://www.w3.org/2000/svg">
<g clip-path="url(#clip0_130_574)">
<path d="M27.5037 33.7772C29.3902 33.7772 30.9195 32.2195 30.9195 30.298C30.9195 28.3765 29.3902 26.8188 27.5037 26.8188C25.6173 26.8188 24.088 28.3765 24.088 30.298C24.088 32.2195 25.6173 33.7772 27.5037 33.7772Z" fill="white"/>
<path d="M16.545 30.0443C25.8315 37.5101 29.4251 37.4376 38.6049 30.0081C39.0318 29.6456 39.3521 29.5007 39.7079 29.8268L39.8146 29.9356C40.1348 30.1893 40.1348 30.6242 39.8858 30.9866L39.6723 31.3128C38.4626 33.0161 37.0038 34.502 35.4738 35.8792L35.0112 36.3141C33.8015 37.4376 32.8764 38.9597 32.4494 40.5906C32.236 41.3879 32.0936 42.3302 32.0936 43.3087V50.6295C32.0936 51.3544 31.809 52.0792 31.3464 52.6228C30.706 53.3114 29.5674 54.0362 27.6105 54.0362H27.5393C25.5824 54.0362 24.4438 53.3114 23.8034 52.6228C23.3053 52.0792 23.0562 51.3906 23.0562 50.6295V43.3087C23.0562 42.294 22.9139 41.3879 22.7004 40.5906C22.2734 38.9597 21.3127 37.5101 20.103 36.3866L19.6405 35.9517C18.1105 34.5383 16.7229 32.9799 15.4775 31.3128L15.2641 30.9866C15.015 30.6604 14.9794 30.2617 15.2996 29.9718L15.4775 29.8268C15.4775 29.8268 15.8689 29.4644 16.6161 30.0805L16.545 30.0443Z" fill="white"/>
<path d="M9.35767 51.2456V47.3315H11.9906V47.9476H10.0337V48.9624H11.955V49.5785H10.0337V50.6658H11.9906V51.2819H9.35767V51.2456Z" fill="#7AA734"/>
<path d="M14.5524 51.3181C14.1966 51.3181 13.8764 51.2457 13.6273 51.1369C13.3783 51.0282 13.1648 50.8832 12.9869 50.702L13.3783 50.1584C13.5206 50.3034 13.6985 50.4121 13.8764 50.5208C14.0899 50.6295 14.3034 50.6658 14.588 50.6658C14.8726 50.6658 14.8371 50.6658 14.9438 50.6295C15.0505 50.6295 15.1217 50.5571 15.1929 50.5208C15.264 50.4846 15.2996 50.4121 15.3352 50.3396C15.3352 50.2671 15.3708 50.1946 15.3708 50.1584C15.3708 50.0497 15.3708 49.9772 15.264 49.9047C15.1929 49.8322 15.1217 49.796 15.015 49.7235C14.9082 49.6873 14.8015 49.651 14.6592 49.6148C14.5168 49.6148 14.3745 49.5423 14.2322 49.5061C14.0899 49.4698 13.9476 49.4336 13.8052 49.3611C13.6629 49.3249 13.5562 49.2524 13.4494 49.1436C13.3427 49.0712 13.2715 48.9624 13.2004 48.8175C13.1292 48.7087 13.0936 48.5275 13.0936 48.3463C13.0936 48.1651 13.0936 48.0202 13.2004 47.9114C13.2715 47.7665 13.3783 47.6577 13.485 47.549C13.5917 47.4403 13.7696 47.3678 13.912 47.2953C14.0899 47.2228 14.2678 47.2228 14.4813 47.2228C14.7659 47.2228 15.0505 47.2591 15.2996 47.3678C15.5487 47.4765 15.7622 47.5853 15.9401 47.7665L15.5487 48.2738C15.4064 48.1289 15.2285 48.0202 15.0505 47.9477C14.8726 47.8752 14.6592 47.8389 14.4457 47.8389C14.2322 47.8389 14.0899 47.8752 13.9831 47.9839C13.8764 48.0564 13.8052 48.2014 13.8052 48.3463C13.8052 48.4913 13.8764 48.5638 13.9831 48.6363C14.0899 48.7087 14.2322 48.745 14.4101 48.8175C14.588 48.89 14.7659 48.9262 14.9438 48.9624C15.1217 48.9987 15.2996 49.0712 15.4775 49.1799C15.6554 49.2886 15.7977 49.3973 15.9045 49.5423C16.0112 49.6873 16.0824 49.8685 16.0824 50.1222C16.0824 50.3759 16.0824 50.4483 16.0112 50.5933C15.9401 50.7383 15.8689 50.8832 15.7266 50.992C15.6198 51.1007 15.4419 51.1732 15.264 51.2457C15.0861 51.3181 14.8371 51.3544 14.588 51.3544L14.5524 51.3181Z" fill="#7AA734"/>
<path d="M18.1105 51.2456V47.9476H16.9363V47.3315H19.9251V47.9476H18.7509V51.2456H18.0749H18.1105Z" fill="#7AA734"/>
<path d="M20.8146 51.3181C20.7079 51.3181 20.6011 51.2819 20.53 51.2094C20.4588 51.1369 20.4232 51.0282 20.4232 50.9195C20.4232 50.8107 20.4588 50.702 20.53 50.6295C20.6011 50.5571 20.7079 50.5208 20.8146 50.5208C20.9213 50.5208 21.0281 50.5571 21.0992 50.6295C21.1704 50.702 21.206 50.8107 21.206 50.9195C21.206 51.0282 21.1704 51.1369 21.0992 51.2094C21.0281 51.2819 20.9213 51.3181 20.8146 51.3181Z" fill="#7AA734"/>
<path d="M34.691 51.2456V48.2376L34.0506 48.8899L33.6592 48.4913L34.7622 47.3678H35.3315V51.2819H34.6554L34.691 51.2456Z" fill="#7AA734"/>
<path d="M38.0712 51.3181C37.8933 51.3181 37.6798 51.3181 37.5019 51.2456C37.324 51.2094 37.1817 51.1369 37.0393 51.0282C36.897 50.9194 36.7903 50.8107 36.7191 50.702C36.6479 50.557 36.6124 50.4121 36.6124 50.2308C36.6124 50.0496 36.6124 49.9772 36.6835 49.8684C36.7191 49.7597 36.7903 49.651 36.8614 49.5785C36.9326 49.506 37.0393 49.4335 37.1461 49.361C37.2528 49.2886 37.3596 49.2523 37.4663 49.2161C37.3596 49.2161 37.2528 49.1436 37.1461 49.0711C37.0393 48.9986 36.9682 48.9624 36.897 48.8899C36.8258 48.8174 36.7547 48.7449 36.7191 48.6362C36.6835 48.5275 36.6479 48.4188 36.6479 48.31C36.6479 48.1288 36.6835 47.9839 36.7547 47.8389C36.8258 47.6939 36.9326 47.6215 37.0749 47.5127C37.2172 47.4402 37.3596 47.3678 37.5375 47.3315C37.7154 47.2953 37.8577 47.259 38.0356 47.259C38.2135 47.259 38.3558 47.259 38.5337 47.3315C38.7116 47.3678 38.8539 47.4402 38.9963 47.5127C39.1386 47.5852 39.2453 47.6939 39.3165 47.8389C39.3876 47.9839 39.4588 48.1288 39.4588 48.31C39.4588 48.4913 39.4588 48.5637 39.3876 48.6362C39.3521 48.7449 39.2809 48.8174 39.2097 48.8899C39.1386 48.9624 39.0674 49.0349 38.9607 49.0711C38.8539 49.1436 38.7472 49.1798 38.6405 49.2161C38.7472 49.2523 38.8539 49.3248 38.9607 49.361C39.0674 49.4335 39.1742 49.506 39.2453 49.5785C39.3165 49.651 39.3876 49.7597 39.4232 49.8684C39.4588 49.9772 39.4944 50.0859 39.4944 50.2308C39.4944 50.3758 39.4588 50.557 39.3876 50.702C39.3165 50.847 39.2097 50.9557 39.0674 51.0282C38.9251 51.1006 38.7828 51.1731 38.6049 51.2456C38.427 51.2819 38.2491 51.3181 38.0356 51.3181H38.0712ZM38.0712 50.702C38.1779 50.702 38.2847 50.702 38.3914 50.6657C38.4981 50.6657 38.5693 50.5933 38.6405 50.557C38.7116 50.5208 38.7828 50.4483 38.8184 50.3758C38.8539 50.3033 38.8895 50.2308 38.8895 50.1584C38.8895 50.0859 38.8895 49.9772 38.7828 49.9047C38.7116 49.8322 38.6405 49.7597 38.5693 49.7235C38.4981 49.6872 38.3914 49.651 38.3202 49.6147C38.2491 49.5785 38.1423 49.5785 38.1067 49.5785C38.0356 49.5785 37.9644 49.5785 37.8933 49.6147C37.8221 49.651 37.7154 49.6872 37.6442 49.7235C37.573 49.7597 37.5019 49.8322 37.4307 49.9047C37.3596 49.9772 37.324 50.0496 37.324 50.1584C37.324 50.2671 37.324 50.3033 37.3951 50.3758C37.4307 50.4483 37.5019 50.4845 37.573 50.557C37.6442 50.6295 37.7154 50.6295 37.8221 50.6657C37.9288 50.6657 38.0356 50.702 38.1423 50.702H38.0712ZM38.0712 48.9624C38.1423 48.9624 38.2135 48.9624 38.2846 48.9261C38.3558 48.9261 38.4626 48.8537 38.5337 48.8174C38.6049 48.7812 38.676 48.7087 38.7116 48.6725C38.7828 48.6 38.7828 48.5275 38.7828 48.4188C38.7828 48.31 38.7828 48.2738 38.7116 48.2013C38.6405 48.1288 38.6405 48.0926 38.5693 48.0201C38.4981 47.9839 38.427 47.9476 38.3558 47.9114C38.2847 47.9114 38.1779 47.9114 38.0712 47.9114C37.8577 47.9114 37.6798 47.9476 37.5375 48.0564C37.3951 48.1651 37.324 48.2738 37.324 48.455C37.324 48.6362 37.324 48.6362 37.3951 48.7087C37.4663 48.7812 37.5019 48.8174 37.573 48.8537C37.6442 48.8899 37.7154 48.9262 37.8221 48.9624C37.8933 48.9624 37.9644 48.9986 38.0356 48.9986L38.0712 48.9624Z" fill="#7AA734"/>
<path d="M41.8782 51.3181C41.6292 51.3181 41.4157 51.2819 41.2378 51.2094C41.0599 51.1369 40.9176 51.0282 40.7753 50.8832L41.0955 50.3758C41.2022 50.4845 41.309 50.557 41.4157 50.6295C41.5224 50.702 41.7003 50.7382 41.8782 50.7382C42.0561 50.7382 42.1985 50.702 42.3408 50.6295C42.4831 50.557 42.5899 50.4483 42.661 50.3396C42.7322 50.2309 42.8033 50.0859 42.8389 49.9409C42.8745 49.796 42.9101 49.6148 42.9101 49.4698V49.3611C42.8745 49.4335 42.8033 49.506 42.7322 49.5423C42.661 49.6147 42.5899 49.651 42.4831 49.7235C42.412 49.7597 42.3052 49.8322 42.1985 49.8684C42.0917 49.8684 41.985 49.9047 41.8782 49.9047C41.7003 49.9047 41.558 49.9047 41.3801 49.8322C41.2378 49.7597 41.0955 49.6872 40.9532 49.5785C40.8464 49.4698 40.7397 49.3248 40.6685 49.1799C40.5973 49.0349 40.5618 48.8537 40.5618 48.6362C40.5618 48.4188 40.5618 48.2738 40.6685 48.1288C40.7397 47.9839 40.8464 47.8389 40.9532 47.6939C41.0599 47.5852 41.2378 47.4765 41.3801 47.404C41.558 47.3315 41.7359 47.2953 41.9494 47.2953C42.1629 47.2953 42.4831 47.3678 42.661 47.4765C42.8745 47.5852 43.0168 47.7302 43.1591 47.9114C43.3015 48.0926 43.3726 48.3101 43.4438 48.5637C43.515 48.8174 43.5505 49.0711 43.5505 49.3248C43.5505 49.5785 43.515 49.8684 43.4438 50.1221C43.3726 50.3758 43.2659 50.5933 43.1236 50.7745C42.9812 50.9557 42.8033 51.1007 42.5899 51.2094C42.3764 51.3181 42.1273 51.3543 41.8782 51.3543V51.3181ZM42.0561 49.2523C42.2341 49.2523 42.3764 49.2161 42.5187 49.1436C42.661 49.0711 42.8033 48.9624 42.8745 48.8174C42.8745 48.7087 42.8745 48.6 42.8033 48.4913C42.8033 48.3825 42.7322 48.2738 42.661 48.2013C42.5899 48.1288 42.5187 48.0564 42.412 47.9839C42.3052 47.9114 42.1985 47.9114 42.0206 47.9114C41.8427 47.9114 41.7715 47.9114 41.7003 47.9839C41.5936 48.0201 41.5224 48.0926 41.4513 48.1288C41.3801 48.2013 41.3445 48.2738 41.309 48.3463C41.309 48.4188 41.2734 48.4913 41.2734 48.6C41.2734 48.7087 41.2734 48.8174 41.3445 48.9262C41.3801 48.9986 41.4513 49.0711 41.5224 49.1436C41.5936 49.2161 41.6648 49.2523 41.7715 49.2523C41.8782 49.2523 41.9494 49.2886 42.0561 49.2886V49.2523Z" fill="#7AA734"/>
<path d="M46.3614 51.2456V50.3759H44.5468V49.8322L46.1124 47.3678H47.0375V49.796H47.5356V50.4121H47.0375V51.2819H46.3614V51.2456ZM46.3614 47.9477L45.1873 49.7597H46.3614V47.9477Z" fill="#7AA734"/>
<path d="M45.6498 19.0631C45.6498 19.0631 40.5973 20.4403 40.7753 24.5718C40.7753 24.5718 41.2022 25.0792 42.3052 25.2242C44.0842 25.4779 46.6816 24.8618 48.3183 22.3973C49.9906 19.9329 50.809 15.6926 50.809 15.6926C50.809 15.6926 49.4925 16.7799 46.1123 16.7074C42.7322 16.6349 39.8502 17.396 40.0636 21.9262C40.0636 21.9262 41.4157 19.6792 45.6142 19.0631H45.6498Z" fill="#7AA734"/>
<path d="M12.7378 11.3798C12.7378 11.3798 18.2172 11.9597 18.7154 16.2725C18.7154 16.2725 18.3596 16.8886 17.2566 17.2147C15.442 17.7584 12.6667 17.5772 10.5319 15.2939C8.39702 13.0107 6.83148 8.77045 6.83148 8.77045C6.83148 8.77045 8.39703 9.67649 11.8839 9.02414C15.3708 8.37179 18.5375 8.66172 19.0356 13.4094C19.0356 13.4094 17.2566 11.3074 12.7734 11.3798H12.7378Z" fill="#7AA734"/>
<path d="M26.1517 16.7074C26.1517 16.7074 30.4925 19.498 29.1404 23.3034C29.1404 23.3034 28.6067 23.6658 27.5393 23.4846C25.7959 23.1946 23.5899 21.8175 22.7359 19.0269C21.882 16.2363 22.3446 12.0322 22.3446 12.0322C22.3446 12.0322 23.2696 13.4456 26.4363 14.3879C29.603 15.294 32.0936 16.8886 30.5637 21.0564C30.5637 21.0564 29.9588 18.5557 26.1873 16.7074H26.1517Z" fill="#7AA734"/>
<path d="M21.0637 4.60268C21.0637 4.60268 24.8708 6.41476 24.1592 9.64027C24.1592 9.64027 23.7678 9.96644 22.8783 9.9302C21.4551 9.85772 19.4981 8.98792 18.5019 6.81342C17.5412 4.63892 17.47 1.15973 17.47 1.15973C17.47 1.15973 18.3595 2.21074 21.0281 2.64564C23.6966 3.04429 25.9026 4.0953 25.0843 7.64698C25.0843 7.64698 24.3371 5.68993 21.0992 4.60268H21.0637Z" fill="#7AA734"/>
<path d="M32.0581 5.43625C32.0581 5.43625 27.5038 8.84297 29.2828 12.9383C29.2828 12.9383 29.9232 13.3007 31.0618 13.0108C32.9476 12.5396 35.2959 10.8725 36.0431 7.75572C36.7547 4.6027 35.9719 0.0362549 35.9719 0.0362549C35.9719 0.0362549 35.0468 1.66713 31.6311 2.93558C28.2154 4.20404 25.5824 6.12485 27.5749 10.5826C27.5749 10.5826 28.0731 7.79196 32.0581 5.4725V5.43625Z" fill="#7AA734"/>
<path d="M36.0075 19.6429C36.0075 19.6429 32.7341 21.4188 33.4813 24.3543C33.4813 24.3543 33.8371 24.6443 34.6199 24.608C35.9008 24.4993 37.573 23.6658 38.3558 21.6362C39.1386 19.6067 39.0674 16.4537 39.0674 16.4537C39.0674 16.4537 38.3202 17.4322 35.9719 17.9033C33.6236 18.3745 31.7378 19.353 32.5918 22.5785C32.5918 22.5785 33.1611 20.7664 36.0075 19.6792V19.6429Z" fill="#7AA734"/>
<path d="M34.3352 29.0658C34.3352 29.0658 34.7622 26.9275 36.4701 26.855C36.4701 26.855 36.6835 27 36.7903 27.4711C36.9326 28.196 36.7903 29.2832 35.794 30.0443C34.8333 30.8054 33.0899 31.3127 33.0899 31.3127C33.0899 31.3127 33.5169 30.7329 33.3746 29.3195C33.2322 27.906 33.4457 26.7101 35.3315 26.6376C35.3315 26.6376 34.442 27.2537 34.3352 29.0295V29.0658Z" fill="#7AA734"/>
<path d="M21.0637 29.0658C21.0637 29.0658 20.6367 26.9275 18.9289 26.855C18.9289 26.855 18.7154 27 18.6086 27.4711C18.4663 28.196 18.6086 29.2832 19.6049 30.0443C20.5656 30.8054 22.309 31.3127 22.309 31.3127C22.309 31.3127 21.882 30.7329 22.0244 29.3195C22.1667 27.9423 21.9532 26.7101 20.0674 26.6376C20.0674 26.6376 20.9569 27.2537 21.0637 29.0295V29.0658Z" fill="#7AA734"/>
<path d="M12.7379 22.0349C12.7379 22.0349 15.6555 24.3906 14.4101 27.1087C14.4101 27.1087 13.9832 27.3262 13.236 27.1087C11.9907 26.7825 10.4963 25.6228 10.0693 23.5208C9.67793 21.3825 10.2828 18.302 10.2828 18.302C10.2828 18.302 10.8521 19.4255 13.0581 20.2953C15.2641 21.1651 16.9719 22.506 15.5487 25.5141C15.5487 25.5141 15.2997 23.6295 12.7023 22.0349H12.7379Z" fill="#7AA734"/>
<path d="M4.05618 19.353C4.05618 19.353 8.11236 20.7302 7.79213 24.1731C7.79213 24.1731 7.43633 24.5718 6.54682 24.6805C5.08801 24.8255 3.02434 24.1731 1.77903 22.0349C0.533708 19.8966 0 16.3087 0 16.3087C0 16.3087 1.03184 17.2872 3.77154 17.3597C6.51124 17.4322 8.82397 18.1933 8.46816 21.9624C8.46816 21.9624 7.47191 20.0416 4.09176 19.3168L4.05618 19.353Z" fill="#7AA734"/>
<path d="M19.427 21.0564C19.427 21.0564 22.0599 22.3248 21.5618 24.6443C21.5618 24.6443 21.2772 24.898 20.6723 24.8617C19.676 24.8255 18.324 24.2094 17.648 22.651C16.9719 21.0926 16.9363 18.6282 16.9363 18.6282C16.9363 18.6282 17.5412 19.3892 19.3914 19.6792C21.2416 19.9691 22.736 20.6939 22.1667 23.2309C22.1667 23.2309 21.6686 21.8174 19.427 21.0564Z" fill="#7AA734"/>
<path d="M42.9101 10.2564C42.9101 10.2564 38.3202 10.4739 37.7153 14.0255C37.7153 14.0255 38 14.5329 38.8895 14.8953C40.3483 15.439 42.6966 15.4027 44.5824 13.6269C46.4681 11.851 47.9625 8.37184 47.9625 8.37184C47.9625 8.37184 46.6105 9.06043 43.764 8.37184C40.9176 7.64701 38.249 7.75573 37.6442 11.6698C37.6442 11.6698 39.2097 10.0027 42.9457 10.2926L42.9101 10.2564Z" fill="#7AA734"/>
<path d="M48.1405 30.2617C48.1405 30.2617 44.191 27.906 41.7716 30.5517C41.7716 30.5517 41.736 31.1315 42.3053 31.9288C43.2659 33.1973 45.2229 34.4658 47.7491 33.9946C50.2753 33.5235 53.3708 31.4577 53.3708 31.4577C53.3708 31.4577 51.8764 31.2765 49.8483 29.102C47.8202 26.9275 45.5431 25.5503 42.9457 28.4859C42.9457 28.4859 45.1517 27.9785 48.1405 30.2617Z" fill="#7AA734"/>
<path d="M42.6611 36.459C42.6611 36.459 41.3446 33.9584 39.2453 34.5382C39.2453 34.5382 39.0319 34.8282 39.103 35.4443C39.2098 36.4228 39.8502 37.7275 41.309 38.2711C42.7678 38.851 45.045 38.7785 45.045 38.7785C45.045 38.7785 44.3334 38.1986 43.942 36.4228C43.5862 34.647 42.8034 33.1611 40.5262 33.8497C40.5262 33.8497 41.8427 34.2845 42.6611 36.459Z" fill="#7AA734"/>
<path d="M6.51123 30.8778C6.51123 30.8778 10.1049 27.9785 12.8801 30.2617C12.8801 30.2617 13.0225 30.8416 12.5243 31.7114C11.7772 33.1248 9.96255 34.647 7.40075 34.5383C4.83895 34.4295 1.4588 32.7987 1.4588 32.7987C1.4588 32.7987 2.9176 32.4362 4.62547 29.9718C6.33333 27.5074 8.397 25.8403 11.3858 28.3772C11.3858 28.3772 9.14419 28.1597 6.47566 30.8416L6.51123 30.8778Z" fill="#7AA734"/>
<path d="M12.0262 37.8363C12.0262 37.8363 12.9157 34.647 15.4419 34.792C15.4419 34.792 15.7621 35.0819 15.8333 35.7705C15.9756 36.894 15.5487 38.5611 14.0543 39.5759C12.5243 40.5906 9.92694 41.098 9.92694 41.098C9.92694 41.098 10.603 40.2645 10.603 38.1262C10.603 35.9879 11.0655 34.1396 13.8408 34.3208C13.8408 34.3208 12.4532 35.1544 12.0262 37.8363Z" fill="#7AA734"/>
<path d="M18.8577 39.0685C18.8577 39.0685 18.3952 37.4376 17.1143 37.5101C17.1143 37.5101 16.9719 37.655 16.9008 38.0175C16.8296 38.5973 17.0431 39.4309 17.8259 39.9745C18.6086 40.5181 19.9251 40.7718 19.9251 40.7718C19.9251 40.7718 19.5693 40.3369 19.5693 39.2497C19.5693 38.1624 19.3202 37.2201 17.897 37.2926C17.897 37.2926 18.6086 37.7275 18.8221 39.1047L18.8577 39.0685Z" fill="#7AA734"/>
<path d="M36.7191 39.3584C36.7191 39.3584 36.7547 37.4013 38.2491 37.1114C38.2491 37.1114 38.4626 37.2201 38.6049 37.6188C38.8539 38.2349 38.8539 39.2496 38.1423 40.047C37.4307 40.8443 36.0075 41.5329 36.0075 41.5329C36.0075 41.5329 36.2921 40.953 35.9719 39.757C35.6517 38.5248 35.6873 37.4013 37.2884 37.1114C37.2884 37.1114 36.6124 37.8 36.7547 39.3946L36.7191 39.3584Z" fill="#7AA734"/>
<path d="M81.3371 31.0228L84.9307 20.9114C85.1442 20.2953 85.2865 19.8241 85.3932 19.4617C85.5 19.0993 85.5356 18.8094 85.5356 18.5194C85.5356 18.1208 85.3932 17.8308 85.1442 17.6859C84.8951 17.5409 84.4326 17.4684 83.7921 17.4684V16.5986H89.3783V17.4684C88.6666 17.4684 88.1329 17.6134 87.7771 17.9033C87.4213 18.1933 87.1011 18.6644 86.852 19.353L81.088 34.7557H80.2696L75.8577 21.4913L70.9475 34.7557H70.1292L65.3614 21.3825C65.0768 20.6215 64.8277 20.0053 64.6142 19.498C64.4007 18.9906 64.1517 18.5919 63.9026 18.302C63.6535 18.0121 63.3689 17.7946 63.0487 17.6859C62.7284 17.5772 62.3371 17.5047 61.8745 17.5047V16.5986H69.382V17.5047C68.5992 17.5047 68.0655 17.5772 67.7453 17.7221C67.4251 17.8671 67.2828 18.1208 67.2828 18.5194C67.2828 18.9181 67.2828 18.9543 67.3895 19.208C67.4607 19.4617 67.5318 19.7879 67.6741 20.1503L71.161 30.9503L74.0075 22.9047C74.221 22.2886 74.4344 21.7449 74.6479 21.2013C74.8614 20.6577 75.0037 20.2228 75.146 19.7879C74.9326 19.353 74.7191 18.9543 74.5768 18.6644C74.3989 18.3745 74.221 18.1208 74.0431 17.9758C73.8652 17.7946 73.6872 17.6859 73.4738 17.6134C73.2603 17.5409 73.0824 17.5047 72.8689 17.5047V16.5986H79.9138V17.5047C79.4513 17.5047 79.0955 17.5047 78.8464 17.5409C78.5618 17.5409 78.3483 17.6134 78.206 17.6859C78.0637 17.7584 77.9569 17.8671 77.9213 17.9758C77.8502 18.0845 77.8502 18.2657 77.8502 18.4107C77.8502 18.5557 77.8857 18.9181 77.9925 19.2443C78.0637 19.5704 78.206 20.0053 78.3483 20.5127L81.4438 30.9866L81.3371 31.0228Z" fill="white"/>
<path d="M93.648 21.9624C94.5375 21.9624 95.3558 22.1074 96.1386 22.4335C96.9214 22.7597 97.5974 23.1946 98.2023 23.7382C98.8071 24.2819 99.2697 24.9705 99.5899 25.7315C99.9457 26.4926 100.124 27.3262 100.124 28.2684C100.124 29.2107 99.9457 30.0805 99.5899 30.8778C99.2341 31.6752 98.7716 32.3637 98.2023 32.9436C97.5974 33.5235 96.9214 33.9584 96.1386 34.2846C95.3558 34.6107 94.5375 34.7919 93.648 34.7919C92.7585 34.7919 91.9757 34.647 91.1929 34.3208C90.4101 33.9946 89.7341 33.5597 89.1648 32.9799C88.5955 32.4 88.133 31.7114 87.7772 30.9141C87.457 30.1168 87.2791 29.247 87.2791 28.3047C87.2791 27.3624 87.457 26.5288 87.7772 25.7678C88.0974 25.0067 88.56 24.3181 89.1648 23.7745C89.7341 23.2309 90.4101 22.796 91.1929 22.4698C91.9757 22.1436 92.794 21.9986 93.648 21.9986V21.9624ZM93.648 23.0859C93.0787 23.0859 92.5805 23.1946 92.0824 23.4483C91.6199 23.702 91.2285 24.0644 90.8727 24.4993C90.5525 24.9705 90.3034 25.5141 90.1255 26.1664C89.9476 26.8188 89.8764 27.5074 89.8764 28.3047C89.8764 29.102 89.9476 29.8268 90.1255 30.4792C90.3034 31.1315 90.5525 31.6752 90.8727 32.1463C91.1929 32.6174 91.5843 32.9436 92.0468 33.1973C92.5094 33.451 93.0431 33.5597 93.6124 33.5597C94.1817 33.5597 94.7154 33.451 95.2135 33.1973C95.6761 32.9436 96.103 32.5812 96.4232 32.1101C96.7435 31.6389 97.0281 31.0953 97.206 30.4429C97.3839 29.7906 97.4907 29.0658 97.4907 28.2684C97.4907 27.4711 97.3839 26.7825 97.206 26.1664C97.0281 25.5141 96.7435 24.9705 96.4232 24.5356C96.103 24.0644 95.6761 23.7382 95.2135 23.4483C94.751 23.1946 94.2173 23.0497 93.6124 23.0497L93.648 23.0859Z" fill="white"/>
<path d="M105.354 30.9141C105.354 31.494 105.354 31.9651 105.425 32.3275C105.461 32.69 105.567 32.9799 105.71 33.1611C105.852 33.3785 106.066 33.4873 106.315 33.596C106.599 33.6685 106.955 33.7047 107.382 33.741V34.5383H101.049V33.741C101.511 33.741 101.867 33.6685 102.152 33.596C102.436 33.5235 102.65 33.3785 102.792 33.1973C102.97 33.0161 103.077 32.7624 103.112 32.4C103.184 32.0738 103.184 31.6389 103.184 31.0953V21.0564C103.184 20.2228 103.184 19.498 103.184 18.9544C103.184 18.4108 103.112 18.0121 103.077 17.7947C103.006 17.4322 102.828 17.2148 102.543 17.0698C102.258 16.9611 101.76 16.8886 101.013 16.8886V16.0913L105.354 15.2215V30.9141Z" fill="white"/>
<path d="M110.015 34.5745H109.517V30.5517H110.086C110.691 32.7262 111.758 33.8496 113.36 33.8496C114.961 33.8496 114.463 33.7047 114.818 33.3785C115.174 33.0886 115.352 32.6174 115.352 32.0013C115.352 31.3852 115.352 31.5664 115.245 31.4215C115.174 31.2402 115.032 31.0953 114.854 30.9141C114.676 30.7329 114.391 30.5154 114.036 30.298C113.68 30.0805 113.217 29.7543 112.684 29.4282C112.15 29.102 111.723 28.8121 111.331 28.5221C110.94 28.2322 110.62 27.9423 110.371 27.6886C110.122 27.3986 109.908 27.1087 109.801 26.7825C109.659 26.4564 109.624 26.0939 109.624 25.659C109.624 25.2241 109.695 24.6443 109.873 24.2094C110.051 23.7745 110.3 23.3758 110.584 23.0859C110.904 22.7597 111.26 22.5423 111.652 22.3611C112.043 22.1798 112.506 22.1074 113.004 22.1074C113.502 22.1074 113.858 22.1798 114.285 22.2886C114.712 22.4335 115.103 22.5785 115.459 22.796L115.921 22.3248H116.348V25.6953H115.743C115.423 24.753 115.032 24.0644 114.64 23.6658C114.249 23.2671 113.751 23.0496 113.182 23.0496C112.612 23.0496 112.257 23.1946 111.936 23.4845C111.616 23.7745 111.474 24.1369 111.474 24.6443C111.474 25.1517 111.509 25.1517 111.616 25.3329C111.687 25.5141 111.83 25.7315 112.007 25.9127C112.185 26.0939 112.434 26.2751 112.719 26.4926C113.004 26.71 113.36 26.8913 113.751 27.1449C114.427 27.5798 114.961 27.9423 115.459 28.2684C115.921 28.5946 116.313 28.9208 116.597 29.247C116.882 29.5731 117.096 29.8993 117.238 30.2255C117.38 30.5517 117.451 30.9503 117.451 31.3852C117.451 32.4725 117.096 33.3423 116.384 33.9946C115.672 34.6107 114.747 34.9369 113.609 34.9369C112.47 34.9369 111.367 34.5745 110.513 33.8859L110.051 34.6832L110.015 34.5745Z" fill="white"/>
<path d="M129.94 32.3275C128.624 33.9222 127.022 34.7195 125.101 34.7195C123.18 34.7195 123.393 34.5745 122.646 34.2483C121.899 33.9584 121.294 33.5235 120.76 32.9799C120.227 32.4363 119.835 31.7839 119.515 30.9866C119.23 30.2255 119.088 29.3557 119.088 28.4497C119.088 27.5436 119.23 26.6376 119.551 25.804C119.871 25.0067 120.298 24.3181 120.867 23.7383C121.436 23.1584 122.077 22.7235 122.86 22.3973C123.642 22.0712 124.496 21.89 125.386 21.89C126.88 21.89 128.019 22.2886 128.837 23.1222C129.655 23.9557 130.047 25.1155 130.047 26.6376C130.047 28.1598 130.011 27 129.904 27.0363C129.833 27.0725 129.62 27.1087 129.335 27.1087H121.757C121.757 27.2175 121.685 27.3987 121.685 27.5799C121.685 27.7611 121.685 27.9423 121.685 28.1598C121.685 28.9571 121.792 29.7181 121.97 30.3705C122.148 31.0228 122.433 31.6027 122.788 32.0738C123.144 32.545 123.571 32.9074 124.069 33.1611C124.567 33.4148 125.137 33.5598 125.742 33.5598C126.346 33.5598 126.987 33.4148 127.521 33.1249C128.09 32.8349 128.624 32.3638 129.228 31.7114L129.94 32.3638V32.3275ZM126.133 26.0577C126.453 26.0577 126.702 26.0577 126.88 26.0577C127.058 26.0577 127.2 26.0215 127.307 25.949C127.414 25.8765 127.449 25.8403 127.485 25.7678C127.485 25.6953 127.521 25.5866 127.521 25.4416C127.521 24.7168 127.307 24.1732 126.845 23.7383C126.382 23.3034 125.777 23.0859 124.994 23.0859C123.322 23.0859 122.326 24.1007 121.899 26.094H126.133V26.0577Z" fill="white"/>
<path d="M137.199 38.1987C136.487 39.7933 135.384 40.5906 133.925 40.5906C132.466 40.5906 132.466 40.2282 132.466 39.5034C132.466 38.7785 132.609 38.8148 132.858 38.6698C133.142 38.4886 133.605 38.3436 134.352 38.1987C134.672 38.1624 134.957 38.0899 135.17 38.0175C135.384 37.945 135.597 37.8362 135.775 37.6913C135.953 37.5463 136.131 37.4013 136.273 37.1839C136.416 36.9664 136.558 36.749 136.7 36.4228L137.519 34.792L133.107 25.0792C132.893 24.6443 132.751 24.2819 132.573 24.0282C132.431 23.7745 132.288 23.5571 132.11 23.4121C131.933 23.2671 131.755 23.1584 131.577 23.1222C131.363 23.0859 131.114 23.0134 130.83 22.9772V22.1799H136.914V22.9772C135.882 22.9772 135.384 23.2309 135.384 23.7383C135.384 24.2456 135.455 24.2456 135.562 24.6805C135.669 25.1154 135.846 25.5503 136.024 26.0215L138.551 32.2188H138.657L140.757 26.9638C140.97 26.4564 141.112 26.0215 141.255 25.6953C141.397 25.3691 141.468 25.1154 141.539 24.898C141.61 24.6805 141.646 24.4993 141.682 24.3906C141.717 24.2819 141.682 24.1369 141.682 23.9919C141.682 23.5933 141.575 23.3034 141.361 23.1946C141.148 23.0859 140.721 22.9772 140.081 22.9772V22.1799H145.133V22.9772C144.848 22.9772 144.599 23.0134 144.386 23.0859C144.172 23.1584 143.994 23.3396 143.781 23.5933C143.567 23.847 143.354 24.2456 143.105 24.753C142.856 25.2604 142.536 25.949 142.18 26.8188L137.163 38.1262L137.199 38.1987Z" fill="white"/>
<path d="M166.944 30.8054C166.944 31.3853 166.944 31.8564 167.051 32.2551C167.122 32.6175 167.228 32.9074 167.406 33.0886C167.584 33.2698 167.833 33.4148 168.154 33.4873C168.474 33.5598 168.901 33.596 169.47 33.6322V34.502H162.034V33.6322C162.567 33.6322 162.994 33.5598 163.35 33.4873C163.67 33.4148 163.919 33.2698 164.133 33.0886C164.346 32.9074 164.453 32.6537 164.489 32.2913C164.56 31.9651 164.595 31.494 164.595 30.9504V25.9128H155.273V30.8054C155.273 31.3853 155.273 31.8564 155.38 32.2551C155.451 32.6175 155.558 32.9074 155.736 33.0886C155.914 33.2698 156.163 33.4148 156.483 33.4873C156.803 33.5598 157.23 33.596 157.8 33.6322V34.502H150.328V33.6322C150.861 33.6322 151.288 33.5598 151.644 33.4873C151.964 33.4148 152.213 33.2698 152.427 33.0886C152.64 32.9074 152.747 32.6537 152.783 32.2913C152.854 31.9651 152.889 31.494 152.889 30.9504V20.0779C152.889 19.5343 152.889 19.0994 152.818 18.7732C152.747 18.447 152.64 18.1933 152.498 17.9759C152.32 17.7947 152.107 17.6497 151.787 17.5772C151.466 17.5047 151.075 17.4685 150.577 17.4322V16.5624H157.586V17.4322C157.088 17.4322 156.697 17.5047 156.412 17.5772C156.127 17.6497 155.878 17.7947 155.736 18.0121C155.558 18.2296 155.451 18.4832 155.416 18.8457C155.38 19.2081 155.345 19.6792 155.345 20.2591V24.7168H164.667V20.0779C164.667 19.5343 164.667 19.0994 164.595 18.7732C164.524 18.447 164.418 18.1933 164.275 17.9759C164.097 17.7947 163.884 17.6497 163.564 17.5772C163.243 17.5047 162.852 17.4685 162.354 17.4322V16.5624H169.363V17.4322C168.865 17.4322 168.474 17.5047 168.189 17.5772C167.904 17.6497 167.655 17.7947 167.513 18.0121C167.335 18.2296 167.228 18.4832 167.193 18.8457C167.122 19.2081 167.122 19.6792 167.122 20.2591V30.8054H166.944Z" fill="white"/>
<path d="M177.618 26.6376V25.6953C177.618 23.8107 176.835 22.8685 175.234 22.8685C173.633 22.8685 174.736 22.8685 174.558 22.9409C174.38 22.9772 174.238 23.0497 174.096 23.1584C173.989 23.2671 173.846 23.4121 173.775 23.6295C173.669 23.847 173.597 24.0644 173.491 24.3906C173.313 24.8255 173.17 25.1517 172.993 25.2966C172.815 25.4416 172.601 25.5141 172.281 25.5141C171.498 25.5141 171.142 25.1154 171.142 24.3544C171.142 23.5933 171.534 23.0134 172.317 22.6148C173.099 22.2161 174.202 21.9987 175.661 21.9987C177.12 21.9987 178.294 22.2886 178.934 22.8322C179.575 23.3758 179.895 24.3181 179.895 25.6228V30.8416C179.895 32.6174 180.251 33.4872 180.927 33.4872C181.603 33.4872 181.354 33.4872 181.532 33.4148C181.745 33.3785 181.888 33.2336 182.03 32.9799L182.35 33.5235C182.172 33.8859 181.817 34.1758 181.354 34.4295C180.856 34.6832 180.358 34.7919 179.824 34.7919C179.29 34.7919 178.65 34.5745 178.33 34.1396C178.009 33.7047 177.831 33.0886 177.831 32.2913H177.725C177.333 33.0523 176.764 33.6685 176.052 34.1034C175.341 34.5383 174.558 34.7557 173.704 34.7557C172.85 34.7557 171.996 34.502 171.427 33.9946C170.858 33.4872 170.609 32.8349 170.609 32.0013C170.609 31.1678 170.68 31.2765 170.787 30.9141C170.929 30.5879 171.142 30.2617 171.427 29.9356C171.712 29.6094 172.103 29.3195 172.566 29.0295C173.028 28.7396 173.633 28.4134 174.309 28.1235L177.618 26.6376ZM177.618 27.6161C176.728 27.9423 176.017 28.3047 175.412 28.6309C174.807 28.957 174.309 29.2832 173.953 29.6094C173.597 29.9356 173.313 30.2617 173.17 30.5879C172.993 30.9141 172.921 31.2403 172.921 31.6027C172.921 32.1101 173.099 32.545 173.42 32.8711C173.74 33.1973 174.202 33.3423 174.772 33.3423C175.341 33.3423 175.554 33.2336 175.875 33.0523C176.23 32.8349 176.515 32.5812 176.8 32.2188C177.049 31.8564 177.262 31.4577 177.405 30.9866C177.547 30.5154 177.618 30.0081 177.618 29.5007V27.6523V27.6161Z" fill="white"/>
<path d="M187.118 30.9141C187.118 31.494 187.118 31.9651 187.189 32.3275C187.225 32.69 187.331 32.9799 187.474 33.1611C187.616 33.3423 187.83 33.4873 188.079 33.596C188.363 33.6685 188.719 33.7047 189.146 33.741V34.5383H182.813V33.741C183.275 33.741 183.631 33.6685 183.916 33.596C184.2 33.5235 184.414 33.3785 184.556 33.1973C184.734 33.0161 184.841 32.7624 184.876 32.4C184.948 32.0738 184.948 31.6389 184.948 31.0953V21.0564C184.948 20.2228 184.948 19.498 184.948 18.9544C184.948 18.3745 184.876 18.0121 184.841 17.7947C184.77 17.4322 184.592 17.2148 184.307 17.0698C184.022 16.9611 183.524 16.8886 182.777 16.8886V16.0913L187.118 15.2215V30.9141Z" fill="white"/>
<path d="M194.625 30.9141C194.625 31.494 194.626 31.9651 194.697 32.3275C194.732 32.69 194.839 32.9799 194.981 33.1611C195.124 33.3423 195.337 33.4873 195.586 33.596C195.871 33.6685 196.227 33.7047 196.654 33.741V34.5383H190.32V33.741C190.783 33.741 191.139 33.6685 191.423 33.596C191.708 33.5235 191.921 33.3785 192.064 33.1973C192.242 33.0161 192.348 32.7624 192.384 32.4C192.455 32.0738 192.455 31.6389 192.455 31.0953V21.0564C192.455 20.2228 192.455 19.498 192.455 18.9544C192.455 18.3745 192.384 18.0121 192.348 17.7947C192.277 17.4322 192.099 17.2148 191.815 17.0698C191.53 16.9611 191.032 16.8886 190.285 16.8886V16.0913L194.625 15.2215V30.9141Z" fill="white"/>
<path d="M212.06 16.3087C213.412 16.3087 214.657 16.5624 215.831 17.0335C217.006 17.5047 218.002 18.1933 218.856 19.0268C219.71 19.8604 220.386 20.8389 220.884 21.9986C221.382 23.1221 221.631 24.3544 221.631 25.6953C221.631 27.0362 221.382 28.1235 220.884 29.247C220.386 30.3342 219.71 31.3127 218.856 32.1101C218.002 32.9074 216.97 33.5597 215.831 34.0309C214.657 34.502 213.412 34.7557 212.096 34.7557C210.779 34.7557 209.498 34.502 208.36 34.0309C207.185 33.5597 206.189 32.9074 205.335 32.1101C204.481 31.3127 203.805 30.3342 203.307 29.247C202.809 28.1597 202.56 26.9637 202.56 25.6953C202.56 24.4268 202.809 23.1584 203.307 21.9986C203.805 20.8752 204.481 19.8966 205.335 19.0268C206.189 18.1933 207.221 17.5409 208.36 17.0335C209.534 16.5624 210.779 16.3087 212.131 16.3087H212.06ZM212.06 33.451C213.056 33.451 213.981 33.2698 214.8 32.9074C215.618 32.545 216.294 32.0376 216.863 31.3852C217.433 30.7329 217.895 29.8993 218.18 28.957C218.5 28.0148 218.642 26.9275 218.642 25.7678C218.642 24.608 218.5 23.4121 218.18 22.3973C217.86 21.3825 217.433 20.549 216.863 19.8242C216.294 19.0993 215.618 18.5919 214.8 18.1933C213.981 17.7946 213.056 17.6134 212.06 17.6134C211.064 17.6134 210.139 17.7946 209.32 18.1933C208.502 18.5919 207.826 19.0993 207.257 19.8242C206.687 20.5127 206.26 21.3825 205.94 22.3973C205.62 23.4121 205.478 24.5356 205.478 25.7678C205.478 27 205.62 28.0148 205.94 28.957C206.26 29.8993 206.687 30.7329 207.257 31.3852C207.826 32.0376 208.502 32.5812 209.32 32.9074C210.139 33.2698 211.028 33.451 212.06 33.451Z" fill="white"/>
<path d="M231.095 24.9342C231.451 24.4631 231.665 24.0644 231.665 23.7383C231.665 23.2309 231.202 22.9772 230.313 22.9772V22.1799H235.365V22.9772C235.08 22.9772 234.831 22.9772 234.618 23.0859C234.404 23.1584 234.191 23.2671 233.977 23.3758C233.764 23.5208 233.551 23.702 233.337 23.9557C233.124 24.2094 232.875 24.4993 232.59 24.8617L230.206 27.906L233.266 31.9651C233.728 32.6175 234.191 33.0524 234.582 33.306C234.974 33.5597 235.436 33.7047 235.899 33.7047V34.502H229.779V33.7047C230.348 33.7047 230.704 33.6685 230.918 33.5597C231.131 33.4873 231.238 33.306 231.238 33.0524C231.238 32.7987 231.167 32.7987 231.06 32.5812C230.918 32.3638 230.704 32.0738 230.419 31.6752L228.818 29.5732L226.861 32.0738C226.648 32.3638 226.506 32.6175 226.506 32.9074C226.506 33.1973 226.612 33.306 226.79 33.451C226.968 33.596 227.253 33.6685 227.68 33.6685V34.4658H222.414V33.6685C222.77 33.6685 223.09 33.6685 223.374 33.5597C223.659 33.4873 223.908 33.3785 224.157 33.2336C224.406 33.0886 224.655 32.8711 224.94 32.5812C225.225 32.2913 225.509 31.9651 225.865 31.5302L228.213 28.6309L225.154 24.2456C224.798 23.7383 224.477 23.4121 224.193 23.2309C223.908 23.0497 223.517 22.9772 223.09 22.9772V22.1799H228.747V22.9772C228.32 22.9772 228.036 23.0134 227.858 23.1222C227.68 23.2309 227.573 23.3758 227.573 23.5208C227.573 23.6658 227.715 24.0644 228 24.4993L229.672 26.9275L231.238 24.8617L231.095 24.9342Z" fill="white"/>
<path d="M236.61 22.5785H239.208V20.9114C239.208 19.1355 239.67 17.7221 240.595 16.7436C241.521 15.7288 242.837 15.2577 244.581 15.2577C246.324 15.2577 246.288 15.4027 246.893 15.6926C247.498 15.9825 247.783 16.3812 247.783 16.8161C247.783 17.251 247.676 17.3959 247.498 17.6134C247.32 17.8308 247.071 17.9396 246.786 17.9396C246.502 17.9396 246.395 17.8671 246.217 17.7584C246.004 17.6496 245.755 17.4322 245.399 17.1785C245.007 16.8523 244.723 16.6349 244.509 16.5261C244.296 16.4174 244.047 16.3812 243.762 16.3812C242.837 16.3812 242.197 16.8523 241.77 17.7946C241.627 18.1208 241.521 18.4832 241.485 18.9543C241.414 19.3892 241.414 20.0416 241.414 20.8027V22.6147H245.114V23.702H241.414V30.8416C241.414 31.4214 241.414 31.8926 241.521 32.255C241.592 32.6174 241.698 32.9436 241.876 33.161C242.054 33.3785 242.303 33.5597 242.588 33.6322C242.908 33.7047 243.3 33.7772 243.798 33.7772V34.5745H237.251V33.7772C237.678 33.7772 238.034 33.7047 238.283 33.6322C238.532 33.5597 238.745 33.4147 238.888 33.2335C239.03 33.0523 239.101 32.7624 239.172 32.4362C239.208 32.0738 239.243 31.6027 239.243 31.0228V23.702H236.646V22.6147L236.61 22.5785Z" fill="white"/>
<path d="M252.479 21.9987C253.369 21.9987 254.187 22.1436 254.97 22.4698C255.753 22.796 256.429 23.2309 257.034 23.7745C257.639 24.3181 258.101 25.0067 258.421 25.7678C258.777 26.5289 258.955 27.3624 258.955 28.3047C258.955 29.247 258.777 30.1168 258.421 30.9141C258.066 31.7114 257.603 32.4 257.034 32.9799C256.429 33.5597 255.753 33.9946 254.97 34.3208C254.187 34.647 253.369 34.8282 252.479 34.8282C251.59 34.8282 250.807 34.6832 250.024 34.357C249.242 34.0309 248.566 33.596 247.996 33.0161C247.427 32.4362 246.964 31.7477 246.609 30.9503C246.288 30.153 246.11 29.2832 246.11 28.3409C246.11 27.3987 246.288 26.5651 246.609 25.804C246.929 25.043 247.391 24.3544 247.996 23.8107C248.566 23.2671 249.242 22.8322 250.024 22.506C250.807 22.1799 251.625 22.0349 252.479 22.0349V21.9987ZM252.479 23.1221C251.91 23.1221 251.412 23.2309 250.914 23.4846C250.451 23.7383 250.06 24.1007 249.704 24.5356C249.384 25.0067 249.135 25.5503 248.957 26.2027C248.779 26.855 248.708 27.5436 248.708 28.3409C248.708 29.1383 248.779 29.8631 248.957 30.5154C249.135 31.1678 249.384 31.7114 249.704 32.1826C250.024 32.6537 250.416 32.9799 250.878 33.2336C251.341 33.4872 251.875 33.596 252.444 33.596C253.013 33.596 253.547 33.4872 254.045 33.2336C254.507 32.9799 254.934 32.6174 255.255 32.1463C255.575 31.6752 255.86 31.1315 256.037 30.4792C256.215 29.8268 256.322 29.102 256.322 28.3047C256.322 27.5074 256.215 26.8188 256.037 26.2027C255.86 25.5503 255.575 25.0067 255.255 24.5718C254.934 24.1007 254.507 23.7745 254.045 23.4846C253.582 23.2309 253.049 23.0859 252.444 23.0859L252.479 23.1221Z" fill="white"/>
<path d="M264.399 30.8416C264.399 31.494 264.399 31.9651 264.435 32.3638C264.435 32.7262 264.541 33.0161 264.684 33.1973C264.826 33.3785 265.004 33.5235 265.253 33.596C265.502 33.6685 265.858 33.7047 266.285 33.741V34.5383H260.165V33.741C260.592 33.741 260.948 33.6685 261.232 33.596C261.482 33.5235 261.695 33.4148 261.837 33.1973C261.98 33.0161 262.051 32.7262 262.086 32.4C262.122 32.0376 262.158 31.5665 262.158 30.9866V28.2685C262.158 27.2175 262.158 26.3839 262.158 25.804C262.158 25.2242 262.051 24.7893 261.944 24.4993C261.802 24.2094 261.624 24.0644 261.339 23.992C261.055 23.9557 260.663 23.9195 260.201 23.9195V23.1222L264.221 22.2524L264.541 25.1517H264.648C264.862 24.6806 265.111 24.2457 265.395 23.8832C265.68 23.4846 266.036 23.1584 266.356 22.9047C266.712 22.651 267.068 22.4336 267.459 22.2524C267.85 22.1074 268.242 22.0349 268.633 22.0349C269.025 22.0349 269.523 22.1436 269.807 22.3973C270.092 22.651 270.234 22.9772 270.234 23.3759C270.234 23.7745 270.128 24.0282 269.879 24.2457C269.665 24.4631 269.309 24.5718 268.882 24.5718C268.455 24.5718 268.42 24.5718 268.277 24.4631C268.099 24.3906 267.957 24.3181 267.815 24.2819C267.673 24.2094 267.566 24.1369 267.459 24.1007C267.352 24.0282 267.21 23.992 267.068 23.992C266.641 23.992 266.249 24.2457 265.822 24.7893C265.395 25.3329 265.075 26.0215 264.862 26.8188C264.755 27.2537 264.648 27.7611 264.577 28.341C264.506 28.9208 264.47 29.5007 264.47 30.1168V30.9141L264.399 30.8416Z" fill="white"/>
<path d="M281.193 32.6174H281.086C280.517 33.4148 279.948 33.9584 279.343 34.3208C278.738 34.647 277.991 34.8282 277.137 34.8282C276.283 34.8282 275.464 34.6832 274.717 34.357C274.006 34.0309 273.365 33.596 272.831 33.0161C272.298 32.4362 271.871 31.7839 271.586 30.9866C271.301 30.1892 271.124 29.3194 271.124 28.4134C271.124 27.5074 271.266 26.6376 271.586 25.8765C271.871 25.0792 272.298 24.4268 272.831 23.847C273.365 23.2671 274.006 22.8322 274.717 22.506C275.464 22.1799 276.247 22.0349 277.101 22.0349C277.955 22.0349 278.489 22.1436 279.058 22.3973C279.627 22.651 280.197 23.0496 280.73 23.5933V21.2013C280.73 20.3315 280.73 19.5705 280.73 18.9906C280.73 18.4107 280.659 18.0121 280.624 17.7946C280.552 17.4684 280.339 17.2147 279.983 17.0698C279.627 16.9248 279.058 16.8523 278.275 16.8523V16.1637L283.007 15.2939V28.7396C283.007 29.8268 283.007 30.6966 283.007 31.3852C283.007 32.0738 283.079 32.5812 283.15 32.8711C283.185 33.0523 283.257 33.1973 283.328 33.3423C283.399 33.4872 283.506 33.5597 283.612 33.6322C283.755 33.7047 283.933 33.7409 284.146 33.7772C284.36 33.7772 284.644 33.8134 285 33.8134V34.6107L281.193 34.8644V32.6899V32.6174ZM280.73 27.4711C280.73 26.6738 280.695 26.0577 280.588 25.6228C280.517 25.1879 280.339 24.8255 280.09 24.5356C279.734 24.0644 279.272 23.702 278.738 23.4846C278.204 23.2309 277.67 23.1221 277.101 23.1221C275.998 23.1221 275.144 23.5933 274.575 24.4993C274.006 25.4416 273.721 26.6738 273.721 28.2684C273.721 29.8631 273.792 29.8268 273.934 30.5154C274.077 31.1678 274.29 31.7476 274.575 32.2188C274.86 32.6899 275.215 33.0523 275.642 33.306C276.069 33.5597 276.567 33.7047 277.101 33.7047C277.635 33.7047 277.67 33.7047 277.955 33.596C278.24 33.5235 278.524 33.451 278.773 33.306C279.058 33.1611 279.307 33.0161 279.521 32.8349C279.734 32.6537 279.948 32.4362 280.09 32.2188C280.303 31.8926 280.446 31.4577 280.552 30.9866C280.659 30.5154 280.695 29.8268 280.695 28.9933V27.4711H280.73Z" fill="white"/>
<path d="M86.3895 43.5986H91.442V44.7584H87.706V46.7154H91.3708V47.8751H87.706V51.1006H86.4251V43.5986H86.3895Z" fill="#7AA734"/>
<path d="M93.47 43.5986H94.7509V49.9409H97.9888V51.1006H93.47V43.5986Z" fill="#7AA734"/>
<path d="M100.052 43.5986H105.105V44.7584H101.369V46.7154H105.034V47.8751H101.369V49.9409H105.105V51.1006H100.052V43.5986Z" fill="#7AA734"/>
<path d="M110.157 48.1651L108.094 51.1006H106.564L109.339 47.259L106.742 43.5986H108.272L110.157 46.353L112.043 43.5986H113.609L111.011 47.2228L113.751 51.0644H112.221L110.157 48.1288V48.1651Z" fill="#7AA734"/>
<path d="M115.494 43.5986H116.775V51.1006H115.494V43.5986Z" fill="#7AA734"/>
<path d="M119.23 43.5986H122.86C124.212 43.5986 124.959 44.4684 124.959 45.5194C124.959 46.5704 124.354 47.0778 123.678 47.2228C124.461 47.3315 125.101 48.1288 125.101 49.0711C125.101 50.0134 124.354 51.1006 122.966 51.1006H119.266V43.5986H119.23ZM122.575 46.7154C123.251 46.7154 123.607 46.3168 123.607 45.7369C123.607 45.157 123.215 44.7584 122.575 44.7584H120.511V46.7154H122.575ZM122.646 49.9409C123.358 49.9409 123.785 49.5423 123.785 48.8899C123.785 48.2376 123.393 47.8389 122.646 47.8389H120.511V49.9047H122.646V49.9409Z" fill="#7AA734"/>
<path d="M127.272 43.5986H128.552V49.9409H131.79V51.1006H127.272V43.5986Z" fill="#7AA734"/>
<path d="M133.854 43.5986H138.906V44.7584H135.17V46.7154H138.835V47.8751H135.17V49.9409H138.906V51.1006H133.854V43.5986Z" fill="#7AA734"/>
<path d="M144.813 43.5986H146.094V49.9409H149.331V51.1006H144.813V43.5986Z" fill="#7AA734"/>
<path d="M151.395 43.5986H156.448V44.7584H152.712V46.7154H156.376V47.8751H152.712V49.9409H156.448V51.1006H151.395V43.5986Z" fill="#7AA734"/>
<path d="M163.315 49.6872H159.828L159.294 51.1369H157.871L160.753 43.6349H162.354L165.236 51.1369H163.813L163.279 49.6872H163.315ZM160.184 48.5275H162.959L161.571 44.7584L160.184 48.5275Z" fill="#7AA734"/>
<path d="M169.506 48.31H168.225V51.1006H166.944V43.5986H170.182C171.64 43.5986 172.601 44.5772 172.601 45.9543C172.601 47.3315 171.747 48.0201 170.858 48.1651L172.672 51.1006H171.178L169.541 48.31H169.506ZM170.004 44.7584H168.225V47.1503H170.004C170.715 47.1503 171.249 46.6792 171.249 45.9543C171.249 45.2295 170.715 44.7584 170.004 44.7584Z" fill="#7AA734"/>
<path d="M176.052 45.6644V51.1369H174.772V43.6349H176.088L179.86 48.9624V43.6349H181.14V51.1369H179.895L176.052 45.6644Z" fill="#7AA734"/>
<path d="M183.56 43.5986H184.841V51.1006H183.56V43.5986Z" fill="#7AA734"/>
<path d="M188.612 45.6644V51.1369H187.331V43.6349H188.648L192.419 48.9624V43.6349H193.7V51.1369H192.455L188.612 45.6644Z" fill="#7AA734"/>
<path d="M199.678 43.4899C201.101 43.4899 202.062 44.1785 202.631 45.0483L201.564 45.6644C201.172 45.1208 200.496 44.6497 199.642 44.6497C198.184 44.6497 197.116 45.7731 197.116 47.3678C197.116 48.9624 198.184 50.0859 199.642 50.0859C201.101 50.0859 201.066 49.7235 201.386 49.3973V48.2376H199.18V47.0778H202.667V49.9047C201.955 50.7383 200.923 51.2819 199.642 51.2819C197.507 51.2819 195.764 49.7597 195.764 47.404C195.764 45.0483 197.507 43.5262 199.642 43.5262L199.678 43.4899Z" fill="#7AA734"/>
<path d="M213.305 49.6872H209.818L209.285 51.1369H207.861L210.743 43.6349H212.345L215.227 51.1369H213.803L213.27 49.6872H213.305ZM210.174 48.5275H212.949L211.562 44.7584L210.174 48.5275Z" fill="#7AA734"/>
<path d="M218.002 44.7584H215.76V43.5986H221.524V44.7584H219.283V51.1006H218.002V44.7584Z" fill="#7AA734"/>
<path d="M232.305 47.8389H228.463V51.1006H227.182V43.5986H228.463V46.6792H232.305V43.5986H233.586V51.1006H232.305V47.8389Z" fill="#7AA734"/>
<path d="M239.492 43.4899C241.698 43.4899 243.264 45.1208 243.264 47.3678C243.264 49.6148 241.698 51.2456 239.492 51.2456C237.286 51.2456 235.721 49.6148 235.721 47.3678C235.721 45.1208 237.286 43.4899 239.492 43.4899ZM239.492 44.6497C237.998 44.6497 237.037 45.8094 237.037 47.3678C237.037 48.9262 237.998 50.0859 239.492 50.0859C240.987 50.0859 241.948 48.9262 241.948 47.3678C241.948 45.8094 240.987 44.6497 239.492 44.6497Z" fill="#7AA734"/>
<path d="M251.732 45.447L249.455 51.1369H248.886L246.644 45.447V51.1369H245.363V43.6349H247.178L249.17 48.6725L251.163 43.6349H252.978V51.1369H251.697V45.447H251.732Z" fill="#7AA734"/>
<path d="M255.468 43.5986H260.521V44.7584H256.785V46.7154H260.449V47.8751H256.785V49.9409H260.521V51.1006H255.468V43.5986Z" fill="#7AA734"/>
</g>
<defs>
<clipPath id="clip0_130_574">
<rect width="285" height="54" fill="white"/>
</clipPath>
</defs>
</svg>
